<svg xmlns="http://www.w3.org/2000/svg" xmlns:xlink="http://www.w3.org/1999/xlink" viewBox="0 0 24 24"><path d="M5.984375 4.9863281 A 1.0001 1.0001 0 0 0 5 6L5 11.832031 A 1.0001 1.0001 0 0 0 5 12.158203L5 18 A 1.0001 1.0001 0 1 0 7 18L7 13L17 13L17 18 A 1.0001 1.0001 0 1 0 19 18L19 12.167969 A 1.0001 1.0001 0 0 0 19 11.841797L19 6 A 1.0001 1.0001 0 0 0 17.984375 4.9863281 A 1.0001 1.0001 0 0 0 17 6L17 11L7 11L7 6 A 1.0001 1.0001 0 0 0 5.984375 4.9863281 z M 2.984375 6.9863281 A 1.0001 1.0001 0 0 0 2 8L2 11L1 11 A 1.0001 1.0001 0 1 0 1 13L2 13L2 16 A 1.0001 1.0001 0 1 0 4 16L4 12.167969 A 1.0001 1.0001 0 0 0 4 11.841797L4 8 A 1.0001 1.0001 0 0 0 2.984375 6.9863281 z M 20.984375 6.9863281 A 1.0001 1.0001 0 0 0 20 8L20 11.832031 A 1.0001 1.0001 0 0 0 20 12.158203L20 16 A 1.0001 1.0001 0 1 0 22 16L22 13L23 13 A 1.0001 1.0001 0 1 0 23 11L22 11L22 8 A 1.0001 1.0001 0 0 0 20.984375 6.9863281 z"/></svg>