<svg width="48" height="48" viewBox="0 0 52 61" fill="none" xmlns="http://www.w3.org/2000/svg">
<path d="M50.4357 25.0471C49.0889 21.595 46.9431 18.9208 44.2252 17.293C43.5983 18.4981 42.8503 19.6363 41.993 20.6899C41.9978 20.6927 42.0027 20.6951 42.0076 20.6979C46.0549 23.0241 48.4089 28.9687 47.732 35.1542C46.6106 45.402 43.4981 52.4253 38.9677 54.9303C36.0223 56.5587 32.3492 56.3268 28.0497 54.2417L27.6297 54.0386H24.5335L24.1136 54.2417C19.8141 56.327 16.141 56.5587 13.1957 54.9303C8.66535 52.4253 5.55309 45.402 4.43133 35.1542C3.75442 28.9687 6.10851 23.0239 10.1558 20.6979C11.4595 19.9533 12.9379 19.5691 14.4392 19.5848C17.5042 19.5848 21.0364 21.0208 24.8747 23.8575L25.0116 23.9591C25.0116 23.9591 30.5446 23.2864 32.7365 22.2912C39.3408 19.2929 40.7981 14.5272 41.0565 13.88C41.8184 11.9893 42.1991 9.96662 42.1768 7.92828C42.1546 5.88995 41.7298 3.87609 40.9269 2.00241L40.4098 0.711426L39.0198 0.725391C36.8217 0.74948 34.6536 1.23825 32.6577 2.1596C30.6619 3.08095 28.8835 4.41405 27.4393 6.07136C25.9951 7.72868 24.9178 9.67272 24.2782 11.7759C23.6385 13.879 23.451 16.0936 23.7278 18.2744C21.3284 16.9299 18.9953 16.0726 16.7601 15.7175C13.5935 15.2142 10.6904 15.7048 8.13138 17.1757C5.32089 18.7911 3.10645 21.5129 1.72761 25.0468C0.474076 28.2596 3.23057e-05 32.006 0.392825 35.5959C1.68038 47.362 5.42766 55.277 11.2297 58.4855C13.1361 59.5432 15.2829 60.0916 17.4631 60.0779C19.9494 60.0779 22.621 59.4185 25.4579 58.1006H26.7059C32.0879 60.6007 36.8729 60.7308 40.9337 58.4855C46.7354 55.2773 50.4832 47.3623 51.7708 35.5959C52.1633 32.0063 51.6893 28.2599 50.4357 25.0471ZM34.6433 5.72201C35.6033 5.30873 36.6153 5.02837 37.6512 4.88869C38.1114 6.48006 38.2231 8.15192 37.9789 9.79039C37.7347 11.4289 37.1402 12.9954 36.2359 14.3834C35.3317 15.7714 34.1389 16.9482 32.7388 17.8336C31.3387 18.719 29.7642 19.2923 28.1226 19.5143C27.3433 16.8156 27.5757 13.9253 28.7763 11.3858C29.9769 8.84639 32.0631 6.83244 34.6433 5.72201Z" fill="black"/>
</svg>
