<svg width="20" height="20" viewBox="0 0 24 24" fill="none" xmlns="http://www.w3.org/2000/svg">
<g clip-path="url(#clip0_29_595)">
<path d="M18.5337 17.404L18.1589 15.2191L23.1831 10.3219C23.3963 10.1139 23.4731 9.80313 23.381 9.52022C23.2891 9.23715 23.0443 9.03076 22.7497 8.9879L15.8064 7.97895L12.701 1.68735C12.5695 1.42022 12.2977 1.25122 12 1.25122C11.7024 1.25122 11.4303 1.42022 11.2987 1.68735L8.19347 7.97895L1.25017 8.9879C0.955867 9.03068 0.710842 9.23698 0.618789 9.52022C0.526904 9.80305 0.603685 10.1139 0.816817 10.3219L5.84118 15.2191L4.65504 22.1344C4.60458 22.4277 4.72515 22.7242 4.96596 22.8992C5.20668 23.0742 5.52621 23.0973 5.78954 22.9587L12.0001 19.6937L18.2101 22.9586C18.3246 23.0187 18.4497 23.0484 18.5741 23.0484C18.7362 23.0484 18.8978 22.9981 19.034 22.8991C19.2747 22.7242 19.3952 22.4276 19.3451 22.1343L18.8998 19.5383" fill="#FFD960"/>
<g opacity="0.2">
<path d="M6.68628 21.5559L7.81446 14.9779C7.86061 14.7089 7.77505 14.5579 7.71852 14.4907L7.67423 14.4475L2.84798 9.74331C2.63476 9.53532 2.55806 9.22457 2.64986 8.94166C2.66961 8.88125 2.69737 8.82531 2.72994 8.77283L1.25017 8.98782C0.955867 9.03059 0.710842 9.23689 0.618789 9.52014C0.526904 9.80296 0.603685 10.1138 0.816817 10.3218L5.84118 15.219L4.65504 22.1343C4.60458 22.4276 4.72515 22.7241 4.96596 22.8991C5.20668 23.0741 5.52621 23.0973 5.78954 22.9586L6.99999 22.3224C6.99906 22.3217 6.99804 22.3213 6.9972 22.3207C6.75648 22.1457 6.63591 21.8492 6.68628 21.5559Z" fill="#231F20"/>
</g>
<path d="M5.42431 23.7323C5.122 23.7324 4.82162 23.6376 4.56495 23.451C4.11068 23.1208 3.88768 22.572 3.98277 22.0188L5.10824 15.4572L0.340635 10.8102C-0.0612428 10.4179 -0.203161 9.84295 -0.0299395 9.30953C0.143873 8.77527 0.596798 8.39364 1.15215 8.3129L7.74049 7.35549L10.687 1.38554C10.935 0.882161 11.4382 0.569214 11.9999 0.569214C12.5616 0.569214 13.0647 0.882161 13.3128 1.38605L16.2591 7.35549L22.8474 8.3129C23.4032 8.39356 23.8563 8.77553 24.0294 9.3097C24.203 9.84262 24.0611 10.4178 23.6591 10.8101L18.8915 15.4573L19.2056 17.2887C19.2694 17.66 19.02 18.0126 18.6487 18.0763C18.2772 18.1401 17.9247 17.8906 17.8612 17.5194L17.4864 15.3345C17.4483 15.1132 17.5217 14.8874 17.6825 14.7307L22.7067 9.8335C22.7337 9.80718 22.7437 9.7671 22.7321 9.73149C22.7203 9.69504 22.6887 9.66847 22.6514 9.66298L15.708 8.65402C15.4859 8.62171 15.2937 8.48224 15.1944 8.28083L12.0891 1.98925C12.072 1.95457 12.0379 1.93339 11.9998 1.93339C11.9615 1.93339 11.9273 1.95457 11.9104 1.98891L8.80497 8.28083C8.70557 8.48215 8.51354 8.62171 8.29129 8.65402L1.34799 9.66298C1.31061 9.66847 1.27888 9.6953 1.26716 9.73132C1.2556 9.76685 1.26572 9.80726 1.29289 9.83384L6.317 14.7308C6.47782 14.8875 6.55114 15.1133 6.51309 15.3346L5.32694 22.2499C5.32045 22.2878 5.3358 22.3251 5.36669 22.3477C5.39714 22.3698 5.43823 22.3727 5.47156 22.3553L11.6822 19.0904C11.881 18.9859 12.1184 18.986 12.317 19.0904L18.527 22.3552C18.5542 22.3694 18.587 22.3807 18.6323 22.3477C18.6627 22.3256 18.6785 22.2869 18.6721 22.2495L18.227 19.6539C18.1633 19.2827 18.4126 18.93 18.7839 18.8663C19.1545 18.8026 19.5079 19.052 19.5716 19.4233L20.0167 22.0193C20.1113 22.5728 19.8881 23.1213 19.4345 23.4511C19.1826 23.6341 18.885 23.7308 18.5736 23.7308C18.3372 23.7308 18.1017 23.6727 17.8925 23.5628L11.9999 20.4644L6.10699 23.5625C5.89091 23.6761 5.65702 23.7323 5.42431 23.7323Z" fill="#231F20"/>
</g>
<defs>
<clipPath id="clip0_29_595">
<rect width="24" height="22.8" fill="white" transform="translate(0 0.75)"/>
</clipPath>
</defs>
</svg>

