<svg width="48" height="48" viewBox="0 0 65 65" fill="none" xmlns="http://www.w3.org/2000/svg">
<path d="M39.4644 40.6348L41.786 45.6316C41.786 45.6316 52.2323 47.8503 52.2323 53.1272C52.2323 56.875 47.5894 56.875 47.5894 56.875H35.2085L29.1147 53.4896" stroke="black" stroke-width="4" stroke-linecap="round" stroke-linejoin="round"/>
<path d="M25.5359 40.6348L23.2145 45.6316C23.2145 45.6316 12.7681 47.8503 12.7681 53.1272C12.7681 56.875 17.4109 56.875 17.4109 56.875H23.021L29.1149 53.4896L36.5628 48.75" stroke="black" stroke-width="4" stroke-linecap="round" stroke-linejoin="round"/>
<path d="M8.125 43.1332C8.125 43.1332 13.9286 41.8841 17.4107 40.6347C20.8929 23.1453 31.3392 24.3945 32.5 24.3945C33.6608 24.3945 44.1071 23.1453 47.5892 40.6347C51.0713 41.8841 56.875 43.1332 56.875 43.1332" stroke="black" stroke-width="4" stroke-linecap="round" stroke-linejoin="round"/>
<path d="M32.5002 18.9583C35.4918 18.9583 37.9168 16.5332 37.9168 13.5417C37.9168 10.5501 35.4918 8.125 32.5002 8.125C29.5085 8.125 27.0835 10.5501 27.0835 13.5417C27.0835 16.5332 29.5085 18.9583 32.5002 18.9583Z" stroke="black" stroke-width="4" stroke-linecap="round" stroke-linejoin="round"/>
</svg>
